<?xml version="1.0" encoding="UTF-8"?>
<svg id="Capa_2" data-name="Capa 2" xmlns="http://www.w3.org/2000/svg" xmlns:xlink="http://www.w3.org/1999/xlink" viewBox="0 0 330.93 355.95">
  <defs>
    <style>
      .cls-1 {
        fill: url(#Degradado_sin_nombre_23);
        opacity: .96;
      }

      .cls-2 {
        fill: #b3b3b3;
      }
    </style>
    <linearGradient id="Degradado_sin_nombre_23" data-name="Degradado sin nombre 23" x1="0" y1="177.97" x2="315.5" y2="177.97" gradientUnits="userSpaceOnUse">
      <stop offset="0" stop-color="#238dcb"/>
      <stop offset="1" stop-color="#01317d"/>
    </linearGradient>
  </defs>
  <g id="OBJECT">
    <g>
      <path class="cls-1" d="m315.5,0c-12.6,11.85-16.89,23.91-51.45,37.02-42.61,16.17-55.12,3.17-81.63,23.58-25.42,19.59-17.57,44.38-45.04,72.82-26.48,27.4-40.04,12.55-73.8,39.6-6.56,5.25-55.32,41.14-50.04,92.16,3.79,36.63,26.76,58.21,38.94,68.46,7.76,6.53,24.36,18.84,33.3,22.3-8.46-3.61-26.94-17.01-35.44-23.14-13.06-9.4-43.16-31.1-49.26-67.82-8.49-51.13,35.96-92.7,42.26-98.41,32.37-29.39,52.63-17.37,77.64-46.65,25.96-30.39,11.33-51.72,35.76-73.07,25.48-22.23,48.33-5.11,90.31-24.07,20.52-9.26,21.84-12.54,32.77-22.79h35.69Z"/>
      <path class="cls-2" d="m330.93,0c-12.06,11.28-22.4,32.62-56.96,45.73-42.61,16.17-64.12-2.12-90.63,18.29-25.42,19.59-12.29,41.53-39.76,69.97-26.48,27.4-45.74,14.29-79.5,41.34-6.56,5.25-52.98,43.58-47.7,94.6,3.79,36.63,32.19,59.88,44.52,69.96,8.21,6.73,16.54,11.93,24.87,16.05-8.46-3.61-17.01-8.29-25.51-14.42-13.06-9.4-43.16-31.1-49.26-67.82-8.49-51.13,35.96-92.7,42.26-98.41,32.37-29.39,47.79-22.31,77.64-46.65,31.34-25.56,11.33-51.72,35.76-73.07,25.48-22.23,48.33-5.11,90.31-24.07C277.48,22.25,288.95,10.52,297.32,0h33.61Z"/>
    </g>
  </g>
</svg>