<?xml version="1.0" encoding="UTF-8"?>
<svg id="Capa_2" data-name="Capa 2" xmlns="http://www.w3.org/2000/svg" xmlns:xlink="http://www.w3.org/1999/xlink" viewBox="0 0 321 355.94">
  <defs>
    <style>
      .cls-1 {
        fill: url(#Degradado_sin_nombre_23);
        opacity: .96;
      }
    </style>
    <linearGradient id="Degradado_sin_nombre_23" data-name="Degradado sin nombre 23" x1="0" y1="177.97" x2="321" y2="177.97" gradientUnits="userSpaceOnUse">
      <stop offset="0" stop-color="#238dcb"/>
      <stop offset="1" stop-color="#01317d"/>
    </linearGradient>
  </defs>
  <g id="OBJECT">
    <path class="cls-1" d="m321,0c-12.06,11.28-22.4,32.62-56.96,45.73-42.61,16.17-55.12,3.17-81.63,23.58-25.42,19.59-7.9,54.43-35.37,82.86-26.48,27.4-44.56,11.35-78.32,38.4-6.56,5.25-45.71,23.76-40.42,74.78,3.79,36.63,16.29,61.54,28.61,71.62,8.21,6.73,10.6,14.84,18.92,18.96-8.46-3.61-17.01-8.29-25.51-14.42-13.06-9.4-43.16-31.1-49.26-67.82-8.49-51.13,35.96-92.7,42.26-98.41,32.37-29.39,52.63-17.37,77.64-46.65,25.96-30.39,11.33-51.72,35.76-73.07,25.48-22.23,48.33-5.11,90.31-24.07,20.52-9.26,31.98-20.98,40.35-31.5h33.61Z"/>
  </g>
</svg>